<svg width="498" height="498" xmlns="http://www.w3.org/2000/svg" xmlns:xlink="http://www.w3.org/1999/xlink" overflow="hidden"><defs><clipPath id="clip0"><rect x="391" y="111" width="498" height="498"/></clipPath></defs><g clip-path="url(#clip0)" transform="translate(-391 -111)"><path d="M392 360C392 223.033 503.033 112 640 112 776.967 112 888 223.033 888 360 888 496.967 776.967 608 640 608 503.033 608 392 496.967 392 360Z" fill-rule="evenodd"/><path d="M415.5 361C415.5 236.46 516.46 135.5 641 135.5 765.54 135.5 866.5 236.46 866.5 361 866.5 485.54 765.54 586.5 641 586.5 516.46 586.5 415.5 485.54 415.5 361Z" stroke="#FFFFFF" stroke-width="10.6667" stroke-miterlimit="8" fill-rule="evenodd"/><path d="M564.5 230.5 597 165.5 683 165.5 715.5 230.5 683 295.5 597 295.5Z" stroke="#FFFFFF" stroke-width="10.6667" stroke-miterlimit="8" fill="none" fill-rule="evenodd"/><path d="M564.5 360.5 597 295.5 683 295.5 715.5 360.5 683 425.5 597 425.5Z" stroke="#FFFFFF" stroke-width="10.6667" stroke-miterlimit="8" fill="none" fill-rule="evenodd"/><path d="M565.5 490.5 598 425.5 683 425.5 715.5 490.5 683 555.5 598 555.5Z" stroke="#FFFFFF" stroke-width="10.6667" stroke-miterlimit="8" fill="none" fill-rule="evenodd"/><path d="M682.5 295.5 715 230.5 801 230.5 833.5 295.5 801 360.5 715 360.5Z" stroke="#FFFFFF" stroke-width="10.6667" stroke-miterlimit="8" fill="none" fill-rule="evenodd"/><path d="M683.5 425.5 716 360.5 801 360.5 833.5 425.5 801 490.5 716 490.5Z" stroke="#FFFFFF" stroke-width="10.6667" stroke-miterlimit="8" fill="none" fill-rule="evenodd"/><path d="M446.5 425.5 479 360.5 565 360.5 597.5 425.5 565 490.5 479 490.5Z" stroke="#FFFFFF" stroke-width="10.6667" stroke-miterlimit="8" fill="none" fill-rule="evenodd"/><path d="M446.5 295.5 479 230.5 565 230.5 597.5 295.5 565 360.5 479 360.5Z" stroke="#FFFFFF" stroke-width="10.6667" stroke-miterlimit="8" fill="none" fill-rule="evenodd"/></g></svg>